<?xml version="1.0" encoding="UTF-8"?>
<svg width="138px" height="103px" viewBox="0 0 138 103" version="1.1" xmlns="http://www.w3.org/2000/svg" xmlns:xlink="http://www.w3.org/1999/xlink">
    <title>Artboard</title>
    <g id="Artboard" stroke="none" stroke-width="1" fill="none" fill-rule="evenodd">
        <g id="nvidia-logo-vert-rgb-wht-for-screen" fill-rule="nonzero">
            <path d="M54.9886502,77.7500871 L54.9886502,102.385557 L61.9789415,102.385557 L61.9789415,77.7509037 L54.9886502,77.7500871 Z M0,77.7166061 L0,102.385557 L7.05592778,102.385557 L7.05592778,83.6541724 L12.5185286,83.6541724 C14.3284561,83.6541724 15.6173936,84.1016743 16.4895391,85.0285258 C17.5955148,86.2011768 18.0484069,88.0916273 18.0484069,91.5507844 L18.0484069,102.383107 L24.88035,102.383107 L24.88035,88.7555307 C24.88035,79.0280806 18.6506221,77.7157895 12.5562696,77.7157895 L0.00328182688,77.7157895 M66.2469573,77.7500871 L66.2469573,102.38474 L77.5848487,102.38474 C83.6258715,102.38474 85.597429,101.384394 87.7297961,99.1428011 C89.236975,97.5691949 90.2108572,94.114121 90.2108572,90.3381195 C90.2108572,86.8756961 89.3862982,83.7864631 87.9480375,81.8633481 C85.3586761,78.4229731 81.6305208,77.7500871 76.0579788,77.7500871 L66.2469573,77.7500871 Z M73.1814575,83.1143936 L76.1867905,83.1143936 C80.5466975,83.1143936 83.3666072,85.06364 83.3666072,90.1200848 C83.3666072,95.1765297 80.5466975,97.1265927 76.1867905,97.1265927 L73.1814575,97.1265927 L73.1814575,83.1143936 Z M44.9134417,77.7500871 L39.0799944,97.274399 L33.4894024,77.7517203 L25.9412005,77.7517203 L33.9250649,102.386373 L43.9986325,102.386373 L52.0448515,77.7517203 L44.9134417,77.7500871 Z M93.4631476,102.38474 L100.45508,102.38474 L100.45508,77.7525369 L93.4615067,77.7525369 L93.4631476,102.38474 Z M113.058936,77.7590698 L103.295501,102.376574 L110.187337,102.376574 L111.732257,98.0248629 L123.283468,98.0248629 L124.745521,102.376574 L132.228907,102.376574 L122.396554,77.7582532 L113.058936,77.7590698 Z M135.816764,103.136021 C134.610997,103.136021 133.633529,102.163137 133.633529,100.963023 C133.633529,99.7629099 134.610997,98.7900259 135.816764,98.7900259 C137.022532,98.7900259 138,99.7629099 138,100.963023 C138.000218,101.540046 137.769845,102.093462 137.359675,102.501249 C136.949506,102.909035 136.393223,103.137705 135.813483,103.13684 L135.816764,103.136021 Z M135.816764,99.2073132 C134.837139,99.2073132 134.08396,99.9569606 134.08396,100.963023 C134.08396,101.969086 134.837139,102.718733 135.816764,102.718733 C136.79639,102.718733 137.549569,101.969086 137.549569,100.963023 C137.549569,99.9569606 136.792287,99.2081298 135.813483,99.2081298 L135.816764,99.2073132 Z M136.208943,102.116076 L135.786407,101.217805 L135.54027,101.217805 L135.54027,102.116076 L135.021742,102.116076 L135.021742,99.8042546 L135.968549,99.8042546 C136.439491,99.8042546 136.740599,100.146414 136.740599,100.531037 C136.740549,100.804238 136.569702,101.048557 136.31232,101.143494 L136.804594,102.116076 L136.208943,102.116076 Z M135.901271,100.230525 L135.53863,100.230525 L135.53863,100.830733 L135.901271,100.830733 C136.012746,100.836522 136.118335,100.780623 136.17582,100.685384 C136.233304,100.590146 136.233304,100.471111 136.17582,100.375873 C136.118335,100.280635 136.012746,100.224735 135.901271,100.230525 Z M117.596882,82.250421 L121.831259,93.7825776 L113.225489,93.7825776 L117.596882,82.250421 Z" id="NVIDIA" fill="#FFFFFF"></path>
            <path d="M45.8437616,19.7253578 L45.8437616,13.7541181 C46.4182439,13.7129258 47.0042159,13.6824434 47.5983947,13.663495 C63.8660929,13.1502386 74.5383331,27.6952493 74.5383331,27.6952493 C74.5383331,27.6952493 63.0142176,43.7661552 50.6521787,43.7661552 C49.0179589,43.7728835 47.3936529,43.5110039 45.8437616,42.9907843 L45.8437616,24.889228 C52.1761982,25.657053 53.4499076,28.4655459 57.2579047,34.8363512 L65.7224915,27.6672386 C65.7224915,27.6672386 59.5410616,19.5292824 49.1215936,19.5292824 C48.0246563,19.5348306 46.9288143,19.5997341 45.8388374,19.7237102 M45.8388374,0 L45.8388374,8.91978655 C46.4223473,8.87365115 47.0066779,8.8374019 47.5934706,8.81515804 C70.2157639,8.0498046 84.9545184,27.4390331 84.9545184,27.4390331 C84.9545184,27.4390331 68.030269,48.103576 50.3944823,48.103576 C48.8687769,48.1035339 47.3460219,47.9690049 45.8437616,47.7015389 L45.8437616,53.2138961 C47.1002952,53.376939 48.3658967,53.4594907 49.6328829,53.4610501 C66.0466636,53.4610501 77.9146478,45.0479291 89.4075771,35.0892721 C91.3115757,36.6208028 99.1138664,40.3462369 100.718313,41.9799246 C89.7891975,51.1625182 64.3273201,58.561484 49.883193,58.561484 C48.4921251,58.561484 47.1535813,58.4790994 45.8412995,58.3505793 L45.8412995,66.0947368 L108.221053,66.0947368 L108.221053,0.00164769309 L45.8388374,0 Z M45.8388374,42.992432 L45.8388374,47.6998912 C30.6560902,44.9811976 26.4459555,29.1427477 26.4459555,29.1427477 C26.4459555,29.1427477 33.7336741,21.0369216 45.8388374,19.7237102 L45.8388374,24.8875803 C45.8289892,24.8875803 45.8232443,24.8875803 45.8150375,24.8875803 C39.4629043,24.121403 34.5001977,30.0778135 34.5001977,30.0778135 C34.5001977,30.0778135 37.2856163,40.1073214 45.8437616,42.9907843 M18.8824853,28.4581312 C18.8824853,28.4581312 27.8788785,15.1315895 45.8437616,13.7541181 L45.8437616,8.91978655 C25.9461558,10.5229919 8.71578947,27.4390331 8.71578947,27.4390331 C8.71578947,27.4390331 18.4746028,55.7604058 45.8437616,58.3530508 L45.8437616,53.2138961 C25.7590387,50.6772726 18.8824853,28.4581312 18.8824853,28.4581312 Z" id="Eye_Mark" fill="#76B900"></path>
        </g>
    </g>
</svg>